<?xml version="1.0" encoding="UTF-8"?>
<svg id="Layer_2" data-name="Layer 2" xmlns="http://www.w3.org/2000/svg" viewBox="0 0 451.33 451.07">
  <defs>
    <style>
      .cls-1 {
        fill: ${color};
      }
    </style>
  </defs>
  <g id="Layer_1-2" data-name="Layer 1">
    <path class="cls-1" d="m228.94.34C289.36.34,349.8.94,410.21,0c19.74-.31,37.65,16.45,40.3,34.16.57,3.84.88,7.64.81,11.5-1.41,78.56-2.77,157.12-4.22,235.67-.8,43.31-1.69,86.62-2.63,129.93-.37,17.23-12.81,35.18-30.31,38.85-2.82.59-5.55.68-8.32.69-121.91.03-243.81-.18-365.72.26-16.69.06-32.19-12.51-37.28-26.45-1.99-5.45-2.94-11.12-2.84-16.98.9-53.13,1.66-106.27,2.64-159.4,1.29-70.14,2.48-140.28,4.29-210.41C7.44,18.35,23.96.13,45.03.23c61.3.29,122.61.1,183.91.11Zm35.74,318.91c-3.37,10.14-7.72,18.86-10.94,28.06-3.74,10.68-9.09,20.79-13.61,31.21-1.73,3.99-3.26,8.1-4.57,12.25-.85,2.71-.32,4.41,3.42,4.36,15.98-.21,31.96-.14,47.95-.03,2.56.02,3.59-1.01,4.6-3.23,1.74-3.83,2.36-8,3.96-11.81,6.97-16.56,14.42-32.89,20.91-49.67,8.03-20.76,17.22-41.07,25.55-61.73,4.36-10.81,9.17-21.42,13.38-32.31,7.52-19.48,16.77-38.29,23.86-57.99,2.75-7.63,2.99-7.63-5.06-7.63-49,0-98,.04-147,.07-9.35,0-9.47-.02-12.7,8.44-6.33,16.59-14.78,32.27-20.41,49.2-3.67,11.05-9.39,21.41-13.99,32.16-.93,2.17-2.07,2.87-4.29,2.83-8.78-.12-17.56-.16-26.34-.11-2.59.02-3.7-.62-2.44-3.29,4.46-9.49,7.64-19.43,10.98-29.35,5.65-16.82,13.15-32.94,18.86-49.8,6.45-19.09,14.51-37.65,21.6-56.56,8-21.33,16.1-42.62,24.25-63.9,1.32-3.46.88-4.45-3.03-4.41-15.63.17-31.26.19-46.89-.09-3.76-.07-5.27,1.35-6.28,4.62-3.23,10.46-7.84,20.4-11.28,30.83-5.98,18.15-14.42,35.42-20.33,53.68-5.53,17.06-13.64,33.17-19.19,50.3-6.21,19.19-14.78,37.55-21.47,56.64-6.91,19.72-15.65,38.81-22.3,58.67-2.43,7.27-2.44,7.61,5.3,7.74,16.5.27,33,.43,49.51.56,9.75.08,19.5.01,30.15.01-11.79,25.34-21.4,50.51-31.92,76.06,17.28,0,33.9-.01,50.53.02,1.86,0,2.31-1.35,2.86-2.59,3.22-7.35,6.5-14.68,9.57-22.09,6.46-15.6,12.78-31.26,19.22-46.86.8-1.94,1.06-4.35,4.35-4.32,17.55.13,35.09.06,53.23.06Z"/>
    <path class="cls-1" d="m260.62,264.39c-8.25,0-16.5-.09-24.75.05-2.79.05-3.25-.7-2.36-3.28,3.71-10.72,8.32-21.05,12.85-31.43.87-1.99,2.09-2.39,4.05-2.38,16.32.03,32.65.04,48.97-.09,3.29-.03,4.18.86,2.55,3.84-5.3,9.66-7.52,20.57-12.32,30.45-1.16,2.38-2.43,2.95-4.76,2.92-8.07-.09-16.15-.04-24.22-.04v-.04Z"/>
  </g>
</svg>