<?xml version="1.0" encoding="UTF-8"?>
<svg id="Layer_2" data-name="Layer 2" xmlns="http://www.w3.org/2000/svg" viewBox="0 0 207 90">
  <defs>
    <style>
      .cls-1 {
        fill: ${color};
      }
    </style>
  </defs>
  <g id="Layer_1-2" data-name="Layer 1">
    <g>
      <g>
        <path class="cls-1" d="m63,0h9v72c0,4.97,4.03,9,9,9h0c4.97,0,9-4.03,9-9V0h9v72c0,9.94-8.06,18-18,18h0c-9.94,0-18-8.06-18-18V0Z"/>
        <path class="cls-1" d="m144,18v27c0,4.97-4.03,9-9,9h-8.97s-.03-.01-.03-.03v-8.94s.01-.03.03-.03h8.94s.03-.01.03-.03v-26.64c0-4.61-3.73-8.96-8.33-9.3-2.74-.2-5.27.84-7.03,2.62-1.63,1.62-2.64,3.88-2.64,6.36v71.97s-.01.03-.03.03h-8.94s-.03-.01-.03-.03V18.5c0-9.95,7.86-18.39,17.81-18.5,5.05-.05,9.62,1.98,12.92,5.27,3.25,3.26,5.27,7.76,5.27,12.73Z"/>
        <g>
          <path class="cls-1" d="m198,90h-9V18c0-4.97-4.03-9-9-9h0c-4.97,0-9,4.03-9,9v72h-9V18c0-9.94,8.06-18,18-18h0c9.94,0,18,8.06,18,18v72Z"/>
          <rect class="cls-1" x="153" y="45" width="54" height="9"/>
        </g>
        <g>
          <path class="cls-1" d="m45,90h-9V18c0-4.97-4.03-9-9-9h0c-4.97,0-9,4.03-9,9v72h-9V18C9,8.06,17.06,0,27,0h0C36.94,0,45,8.06,45,18v72Z"/>
          <rect class="cls-1" y="45" width="54" height="9"/>
        </g>
      </g>
      <polyline class="cls-1" points="135 63 144 90 135 90 126 63"/>
    </g>
  </g>
</svg>